# xmcd CD database file
#
# Track frame offsets:
#	150
#	13872
#	23618
#	36682
#	51723
#	65617
#	82638
#	95383
#	111609
#	128911
#	146652
#	156569
#
# Disc length: 2260 seconds
#
# Revision: 1
# Processed by: cddbd v1.5.2PL0 Copyright (c) Steve Scherf et al.
# Submitted via: CDex 1.51
#
DISCID=af08d20c
DTITLE=Little Victor and Sophie Kay - Cookin' With Gas
DYEAR=2000
DGENRE=Jazz
TTITLE0=This Big Road
TTITLE1=No Mail Blues
TTITLE2=Let Your Linen Hang Low
TTITLE3=I Walked From Houston
TTITLE4=Two Days Ago
TTITLE5=Shake Your Boogie
TTITLE6=Nobody's Fault
TTITLE7=Rock Little Daddy
TTITLE8=Run, Walk Or Crawl
TTITLE9=Crawdad Hole
TTITLE10=Blues In The Bottle
TTITLE11=Worried Nite 'n' Day
EXTD=YEAR: 2000
EXTT0=
EXTT1=
EXTT2=
EXTT3=
EXTT4=
EXTT5=
EXTT6=
EXTT7=
EXTT8=
EXTT9=
EXTT10=
EXTT11=
PLAYORDER=
